# xmcd
#
# Track frame offsets: 
#        150
#        14075
#        60686
#        131972
#        201645
#        262684
#
# Disc length: 4201 seconds
#
# Revision: 1
# Processed by: cddbd v1.5.2PL0 Copyright (c) Steve Scherf et al.
# Submitted via: ExactAudioCopy v0.99pb5
#
DISCID=5b106706
DTITLE=Bill Dixon - Vade Mecum II (Soul Note, 1996 - remaster 2010)
DYEAR=1996
DGENRE=Jazz
TTITLE0=Valentina de sera
TTITLE1=Tableau
TTITLE2=Ebonite
TTITLE3=Reflections
TTITLE4=Incunabula
TTITLE5=Octette #1
EXTD=
EXTT0=
EXTT1=
EXTT2=
EXTT3=
EXTT4=
EXTT5=
PLAYORDER=
